# xmcd
# 
# Track frame offsets:
#     150
#     10119
#     22336
#     36995
#     48914
#     65266
#     82884
# 
# Disc length: 1388
# 
# Revision: 0
# Processed by: cddbd v1.5.2PL0 Copyright (c) Steve Scherf et al.
# Submitted via: BonkEnc v1.0.8
# 
DISCID=4f056a07
DTITLE=The Gasoline Lollipops - Dawn
DYEAR=2012
DGENRE=
TTITLE0=Dawn
TTITLE1=Full Steam Ahead
TTITLE2=The Wire
TTITLE3=Cannonball
TTITLE4=Pop's Song
TTITLE5=The Longest Night
TTITLE6=White Trash
EXTD=
EXTT0=
EXTT1=
EXTT2=
EXTT3=
EXTT4=
EXTT5=
EXTT6=
PLAYORDER=
